<?xml version="1.0" standalone="no"?>
<!DOCTYPE svg PUBLIC "-//W3C//DTD SVG 20010904//EN"
 "http://www.w3.org/TR/2001/REC-SVG-20010904/DTD/svg10.dtd">
<svg version="1.0" xmlns="http://www.w3.org/2000/svg"
 width="300.000000pt" height="300.000000pt" viewBox="0 0 300.000000 300.000000"
 preserveAspectRatio="xMidYMid meet">
<metadata>
Created by potrace 1.14, written by Peter Selinger 2001-2017
</metadata>
<g transform="translate(0.000000,300.000000) scale(0.100000,-0.100000)"
fill="#000000" stroke="none">
<path d="M1012 1880 c-82 -17 -159 -95 -183 -185 -6 -22 -9 -79 -7 -127 4 -74
8 -93 34 -134 16 -27 48 -62 71 -78 36 -25 54 -30 122 -34 45 -2 101 1 130 8
l51 12 0 64 c0 35 -4 64 -8 64 -5 0 -30 -7 -56 -16 -59 -20 -120 -14 -152 17
-55 52 -54 207 3 263 30 31 86 35 152 12 l41 -15 20 47 c11 25 19 53 18 62 -6
32 -154 57 -236 40z"/>
<path d="M1957 1876 c-122 -33 -176 -116 -176 -271 0 -135 36 -212 122 -258
35 -19 58 -22 142 -22 83 0 107 4 140 22 86 46 117 105 123 229 9 184 -51 277
-193 303 -73 14 -97 13 -158 -3z m160 -142 c26 -24 28 -33 32 -110 5 -130 -22
-176 -104 -176 -51 0 -69 11 -91 54 -33 63 -20 196 23 236 35 32 103 31 140
-4z"/>
<path d="M2515 1875 c-117 -31 -164 -170 -87 -256 15 -17 63 -50 107 -72 84
-44 103 -69 69 -94 -29 -21 -70 -16 -191 22 -22 7 -23 5 -23 -59 0 -63 1 -67
28 -78 50 -20 188 -22 236 -4 92 35 123 85 118 193 -3 46 -42 85 -136 136 -86
46 -111 71 -86 87 22 14 92 12 139 -5 42 -14 42 -14 52 13 5 15 14 39 20 54 6
15 8 31 5 37 -7 12 -134 41 -173 40 -15 0 -50 -6 -78 -14z"/>
<path d="M313 1628 c-45 -139 -84 -264 -88 -278 l-6 -25 76 1 c41 0 78 4 82 8
5 4 13 26 18 49 l11 42 89 0 90 0 15 -48 15 -48 78 -3 c42 -1 79 0 82 2 2 2
-9 41 -24 86 -16 44 -57 168 -92 274 l-63 192 -101 0 -101 0 -81 -252z m212
39 c14 -54 25 -102 25 -107 0 -10 -92 -14 -102 -5 -2 3 7 52 21 110 14 57 26
103 28 101 1 -1 14 -46 28 -99z"/>
<path d="M1302 1818 l3 -63 60 0 60 -1 3 -212 2 -212 53 -1 c28 0 62 -2 75 -5
l22 -4 1 203 c1 111 1 207 0 214 -1 7 24 14 69 19 l70 7 0 58 0 59 -210 0
-211 0 3 -62z"/>
</g>
</svg>
